<svg width="61" height="50" viewBox="0 0 61 50" fill="none" xmlns="http://www.w3.org/2000/svg">
<path d="M32.8557 6.34429C25.5873 1.81368 16.4094 7.174 16.5811 15.5911L16.596 16.7032C16.599 17.2325 16.5823 17.5623 16.2046 17.9838C15.4797 18.7921 14.5623 18.3672 13.6533 18.2366C11.3079 17.8995 8.73801 18.9699 7.17573 20.6981C3.30677 24.9778 4.2558 31.2148 9.6475 33.8134C9.83728 33.9048 10.1092 33.9591 10.2617 34.0968L10.2552 38.6586C9.92357 38.549 9.52383 38.5368 9.17548 38.448C3.20302 36.9243 -0.688644 30.9721 0.101676 24.8685C0.839369 19.1713 5.35224 14.5574 10.9841 13.66C11.8713 13.5186 11.9333 13.8132 12.0318 13.1434C13.1066 5.82153 19.3877 0.220523 26.7648 0.00270507C31.7883 -0.084589 36.2764 1.94153 39.3767 5.9871C39.7566 6.48283 40.1475 6.98957 40.4149 7.55589C41.4052 7.27231 43.0683 7.26096 44.0834 7.38298C48.0819 7.86368 51.6203 10.6514 52.7033 14.5569L52.8891 15.3092C52.9233 15.4593 52.8921 15.5721 53.054 15.6285C56.6426 16.878 59.2682 20.7787 59.9329 24.3809C61.1265 30.8516 56.6351 38.2892 49.7455 38.5873L49.7255 34.126C49.942 34.0274 50.2311 34.0187 50.4664 33.9382C56.2884 31.9452 56.9544 22.7224 51.4941 20.0847C50.6104 19.6577 49.3291 19.6465 48.7345 18.7783C48.3904 18.2759 48.5065 17.653 48.4378 17.0775C48.002 13.4266 44.2901 11.086 40.806 12.545C40.1809 12.8067 39.7019 13.3305 38.9865 13.3166C37.4928 13.2879 37.2675 11.9107 36.7884 10.8026C35.9933 8.96328 34.4979 7.45291 32.8557 6.34429Z" fill="#007DFE"/>
<path d="M30.067 36.4564C29.9283 36.4998 29.8279 36.4219 29.7053 36.3633L15.708 29.4019C14.9829 29.0221 14.1397 28.6527 13.5161 28.1221C14.0584 27.6849 14.7289 27.3818 15.3496 27.0699L30.1409 19.5788C30.3292 19.6567 30.5199 19.7852 30.702 19.8809L45.0683 27.2269C45.6305 27.5053 46.1988 27.7671 46.7159 28.1261L30.067 36.4564Z" fill="#AACBFF"/>
<path d="M13.8595 41.8731L13.7959 41.8705C13.6744 41.6944 13.7496 41.4335 13.7496 41.2279L13.7485 34.6216C13.7485 33.8165 13.6835 32.9484 13.7797 32.1504L29.9444 40.2439L46.2521 32.1301L46.338 41.8571C46.2294 41.9394 46.0994 41.9608 45.9753 42.012L31.2998 49.3173C30.8556 49.5432 30.4171 49.8074 29.9581 50L13.8595 41.8731Z" fill="#007DFE"/>
</svg>
