<svg width="35" height="44" viewBox="0 0 35 44" fill="none" xmlns="http://www.w3.org/2000/svg">
<g clip-path="url(#clip0_44_366)">
<path fill-rule="evenodd" clip-rule="evenodd" d="M16.5424 42.4915C17.4069 42.4915 32.8534 25.8933 32.8534 16.8336C32.8534 7.7738 25.5506 0.429413 16.5424 0.429413C7.5341 0.429413 0.231445 7.7738 0.231445 16.8336C0.231445 25.8933 15.6779 42.4915 16.5424 42.4915ZM16.5424 25.0384C21.1096 25.0384 24.8121 21.3147 24.8121 16.7214C24.8121 12.1281 21.1096 8.40448 16.5424 8.40448C11.9752 8.40448 8.27278 12.1281 8.27278 16.7214C8.27278 21.3147 11.9752 25.0384 16.5424 25.0384Z" fill="#004DA9"/>
<path fill-rule="evenodd" clip-rule="evenodd" d="M0.231445 16.8336C0.231445 25.8933 15.6779 42.4915 16.5424 42.4915V25.0384C11.9752 25.0382 8.27278 21.3147 8.27278 16.7214C8.27278 12.1281 11.9752 8.4045 16.5424 8.40448V0.429413C7.5341 0.429413 0.231445 7.7738 0.231445 16.8336Z" fill="#007DFE"/>
</g>
<defs>
<clipPath id="clip0_44_366">
<rect width="35" height="44" fill="white"/>
</clipPath>
</defs>
</svg>
